<svg id="open_in_new_24dp_000000_FILL0_wght400_GRAD0_opsz24" xmlns="http://www.w3.org/2000/svg" width="14" height="14" viewBox="0 0 14 14">
  <path id="open_in_new_24dp_000000_FILL0_wght400_GRAD0_opsz24-2" data-name="open_in_new_24dp_000000_FILL0_wght400_GRAD0_opsz24" d="M121.333-828a1.284,1.284,0,0,1-.942-.392,1.284,1.284,0,0,1-.392-.942v-9.333a1.284,1.284,0,0,1,.392-.942,1.284,1.284,0,0,1,.942-.392H126v1.333h-4.667v9.333h9.333V-834H132v4.667a1.284,1.284,0,0,1-.392.942,1.284,1.284,0,0,1-.942.392Zm3.133-3.533-.933-.933,6.2-6.2h-2.4V-840H132v4.667h-1.333v-2.4Z" transform="translate(-119 840.824)" fill="#010fca"/>
  <rect id="長方形_238" data-name="長方形 238" width="14" height="14" fill="none"/>
</svg>
