<svg id="logo-renew" xmlns="http://www.w3.org/2000/svg" xmlns:xlink="http://www.w3.org/1999/xlink" width="940" height="178" viewBox="0 0 940 178">
  <defs>
    <linearGradient id="linear-gradient" x1="0.922" y1="1.111" x2="0.229" y2="0.219" gradientUnits="objectBoundingBox">
      <stop offset="0" stop-color="#8a2eda"/>
      <stop offset="0.059" stop-color="#934de6"/>
      <stop offset="0.35" stop-color="#632fc6"/>
      <stop offset="0.67" stop-color="#3d64ce"/>
      <stop offset="1" stop-color="#45dbff"/>
    </linearGradient>
    <linearGradient id="linear-gradient-2" x1="1.289" y1="1.125" x2="0" gradientUnits="objectBoundingBox">
      <stop offset="0" stop-color="#ab57f4"/>
      <stop offset="0.453" stop-color="#5d7fdb"/>
      <stop offset="1" stop-color="#279bfd"/>
    </linearGradient>
  </defs>
  <rect id="長方形_277" data-name="長方形 277" width="940" height="178" fill="none"/>
  <g id="グループ_351" data-name="グループ 351">
    <g id="グループ_349" data-name="グループ 349">
      <path id="パス_643" data-name="パス 643" d="M-250.219,0h-16.328a7.135,7.135,0,0,1-4.514-1.374,7.811,7.811,0,0,1-2.551-3.415l-8.478-23.158h-47.021l-8.478,23.158a7.431,7.431,0,0,1-2.473,3.3A6.949,6.949,0,0,1-344.576,0h-16.406l44.588-113.511h21.587Zm-73.476-42.861h36.189l-13.816-37.758q-.942-2.512-2.08-5.927t-2.237-7.418q-1.1,4-2.159,7.458t-2.08,6.044ZM-214.737,0h-21.2V-113.511h21.2ZM-98.086-92.865a5.824,5.824,0,0,1-2,2.433,5.032,5.032,0,0,1-2.708.706,6.884,6.884,0,0,1-3.533-1.217q-1.962-1.217-4.632-2.708a37.819,37.819,0,0,0-6.241-2.708,26.229,26.229,0,0,0-8.439-1.217,24.808,24.808,0,0,0-7.654,1.06,16.2,16.2,0,0,0-5.495,2.944,11.764,11.764,0,0,0-3.336,4.514,14.817,14.817,0,0,0-1.1,5.77,10.033,10.033,0,0,0,2.237,6.673,18.681,18.681,0,0,0,5.927,4.553,55,55,0,0,0,8.4,3.375q4.71,1.491,9.616,3.179a92.6,92.6,0,0,1,9.616,3.925,33.326,33.326,0,0,1,8.4,5.652,25.616,25.616,0,0,1,5.927,8.36,29.033,29.033,0,0,1,2.237,12.01,39.132,39.132,0,0,1-2.63,14.4,33.233,33.233,0,0,1-7.693,11.7,36.236,36.236,0,0,1-12.364,7.85,45.518,45.518,0,0,1-16.721,2.865A53.915,53.915,0,0,1-140.947.2a56.2,56.2,0,0,1-10.087-3.022,52.67,52.67,0,0,1-9.027-4.71,44.423,44.423,0,0,1-7.5-6.123l6.123-10.127a7.813,7.813,0,0,1,2.08-1.845,5.08,5.08,0,0,1,2.708-.746,7.489,7.489,0,0,1,4.239,1.609q2.276,1.609,5.377,3.572a41.262,41.262,0,0,0,7.3,3.572,28.223,28.223,0,0,0,10.087,1.609q9.028,0,13.973-4.278t4.946-12.285a11.407,11.407,0,0,0-2.237-7.3,18.062,18.062,0,0,0-5.927-4.749,44.251,44.251,0,0,0-8.4-3.258q-4.71-1.334-9.577-2.9a82.584,82.584,0,0,1-9.577-3.768,31.026,31.026,0,0,1-8.4-5.731,26.074,26.074,0,0,1-5.927-8.831,33.656,33.656,0,0,1-2.237-13.07,30.938,30.938,0,0,1,2.473-12.089,30.95,30.95,0,0,1,7.222-10.441,35.649,35.649,0,0,1,11.657-7.3,42.436,42.436,0,0,1,15.778-2.747,52.95,52.95,0,0,1,18.526,3.14A41.823,41.823,0,0,1-92.9-102.835Zm41.919-23.785v66.8h.611a2.725,2.725,0,0,0,1.956-.573,7.94,7.94,0,0,0,2.355-2.041l20.017-24.727A11.7,11.7,0,0,1-28.4-79.662a7.514,7.514,0,0,1,3.925-.9H-6.735L-31.777-50.656a34.36,34.36,0,0,1-2.748,3.022,17.893,17.893,0,0,1-3.061,2.394,14.474,14.474,0,0,1,2.9,2.747q1.256,1.57,2.512,3.376L-5.322-.024H-22.828a8.54,8.54,0,0,1-3.847-.785A7.54,7.54,0,0,1-29.5-3.478L-49.989-34.014a6.249,6.249,0,0,0-2.355-2.355,3.858,3.858,0,0,0-2.427-.526h-1.4V0H-75.556V-116.651Zm83.606,36.11V0H8.05V-80.541Zm2.9-23.472a11.048,11.048,0,0,1-1.021,4.71,12.945,12.945,0,0,1-2.708,3.847,12.945,12.945,0,0,1-3.964,2.63,12.163,12.163,0,0,1-4.867.981,11.694,11.694,0,0,1-4.749-.981,12.58,12.58,0,0,1-3.886-2.63A12.716,12.716,0,0,1,6.519-99.3a11.422,11.422,0,0,1-.981-4.71,12.163,12.163,0,0,1,.981-4.867,12.457,12.457,0,0,1,2.63-3.925,12.58,12.58,0,0,1,3.886-2.63,11.694,11.694,0,0,1,4.749-.981,12.163,12.163,0,0,1,4.867.981,12.945,12.945,0,0,1,3.964,2.63,12.663,12.663,0,0,1,2.708,3.925A11.761,11.761,0,0,1,30.344-104.013Zm39.642-12.638V0H50.6V-116.651Zm42.547,0V0H93.144V-116.651ZM215.522-17.035a27.887,27.887,0,0,0,10.951-2.041,22.82,22.82,0,0,0,8.164-5.731,25.025,25.025,0,0,0,5.1-8.949,36.851,36.851,0,0,0,1.766-11.775v-67.981h21.116V-45.53a52.41,52.41,0,0,1-3.258,18.722,42.314,42.314,0,0,1-9.381,14.837,42.792,42.792,0,0,1-14.836,9.734,52.35,52.35,0,0,1-19.625,3.493A52.35,52.35,0,0,1,195.9-2.237a42.385,42.385,0,0,1-14.8-9.734,42.6,42.6,0,0,1-9.342-14.837A52.41,52.41,0,0,1,168.5-45.53v-67.981h21.117v67.9a36.851,36.851,0,0,0,1.766,11.775,25.762,25.762,0,0,0,5.063,8.988,22.225,22.225,0,0,0,8.125,5.77A27.887,27.887,0,0,0,215.522-17.035ZM279.032,26.3V-80.541h11.854a5.8,5.8,0,0,1,3.218.864,4.035,4.035,0,0,1,1.727,2.669l1.57,7.458a40.653,40.653,0,0,1,11.186-9.028,30.38,30.38,0,0,1,14.8-3.454,26.406,26.406,0,0,1,12.05,2.747,27.042,27.042,0,0,1,9.42,7.968,38.219,38.219,0,0,1,6.123,12.874A64.779,64.779,0,0,1,353.136-40.9,55.176,55.176,0,0,1,350.7-24.178a40.916,40.916,0,0,1-6.947,13.345A32.1,32.1,0,0,1,332.844-2a31.749,31.749,0,0,1-14.326,3.179A28.808,28.808,0,0,1,306.938-.9a28.342,28.342,0,0,1-8.517-5.77V26.3Zm37.68-93.022a19.8,19.8,0,0,0-10.323,2.551,29.855,29.855,0,0,0-7.968,7.183v36.11A18.455,18.455,0,0,0,305.6-15.19a21.631,21.631,0,0,0,8.36,1.609,18.79,18.79,0,0,0,7.968-1.649,15.461,15.461,0,0,0,6.045-5.024,24.856,24.856,0,0,0,3.807-8.517A48.668,48.668,0,0,0,333.118-40.9,53.84,53.84,0,0,0,331.98-52.87a23.127,23.127,0,0,0-3.258-7.968,12.87,12.87,0,0,0-5.142-4.475A16.035,16.035,0,0,0,316.712-66.725Z" transform="translate(585 151.651)"/>
      <path id="前面オブジェクトで型抜き_2" data-name="前面オブジェクトで型抜き 2" d="M60.228,210l-4.858,0a32.532,32.532,0,0,1-8.765-1.186,31.3,31.3,0,0,1-7.683-3.31A32.374,32.374,0,0,1,23.328,178.52a31.3,31.3,0,0,1,.968-8.31,32.53,32.53,0,0,1,3.348-8.186l65.63-113.9a32.533,32.533,0,0,1,5.412-7.011A31.3,31.3,0,0,1,105.4,36.1a32.376,32.376,0,0,1,31.2,0,31.3,31.3,0,0,1,6.715,5.008,32.535,32.535,0,0,1,5.412,7.011l65.63,113.9a32.53,32.53,0,0,1,3.348,8.186,31.3,31.3,0,0,1,.968,8.31A32.374,32.374,0,0,1,203.078,205.5a31.3,31.3,0,0,1-7.683,3.31A32.532,32.532,0,0,1,186.63,210H111.067l23.892-41.382L155.719,180.6,153.1,102.954,84.544,139.511,105.3,151.5l-.015.034c-.565,1.2-3.6,7.612-7.792,15.477-4.215,7.906-10.483,18.908-16.4,26.425a62.3,62.3,0,0,1-8.218,8.682,43.559,43.559,0,0,1-6.9,4.912,22.8,22.8,0,0,1-6.524,2.68l.782.294Z" transform="translate(-23 -32.097)" fill="url(#linear-gradient)"/>
    </g>
    <circle id="楕円形_27" data-name="楕円形 27" cx="16" cy="16" r="16" transform="translate(159 7)" fill="url(#linear-gradient-2)"/>
  </g>
</svg>
